<svg width="20" height="20" viewBox="0 0 20 20" fill="none" xmlns="http://www.w3.org/2000/svg">
<path d="M11.0598 8.46943C12.6073 5.94099 15.7802 5.97999 17.5943 6.82497C18.8881 7.42945 19.5058 8.56042 19.7334 9.89289C19.8894 10.8094 19.9675 11.7453 19.9805 12.6748C20.013 15.0083 19.987 17.3352 20 19.6686C20 19.9091 19.9285 19.9611 19.7009 19.9611C18.5045 19.9481 17.3147 19.9481 16.1183 19.9611C15.8712 19.9611 15.8257 19.8896 15.8257 19.6621C15.8322 17.6212 15.8387 15.5867 15.8257 13.5458C15.8192 12.9153 15.7997 12.2718 15.6892 11.6543C15.4681 10.3804 14.5969 9.78889 13.3095 9.97089C12.1261 10.1399 11.4889 10.8029 11.3199 12.0768C11.2614 12.5318 11.2289 12.9998 11.2289 13.4613C11.2224 15.5477 11.2224 17.6342 11.2289 19.7271C11.2289 19.9416 11.1703 20.0001 10.9558 20.0001C9.74641 19.9871 8.53705 19.9936 7.32119 20.0001C7.13263 20.0001 7.05461 19.9676 7.05461 19.7531C7.06111 15.4632 7.06111 11.1734 7.05461 6.88346C7.05461 6.69497 7.10663 6.62997 7.30169 6.63647C8.47203 6.64297 9.64238 6.64297 10.8127 6.63647C11.0078 6.63647 11.0663 6.70147 11.0598 6.88996C11.0533 7.38395 11.0598 7.88444 11.0598 8.46943Z" fill="white"/>
<path d="M0.331651 13.3181C0.331651 11.1797 0.338153 9.04773 0.32515 6.90928C0.32515 6.68179 0.390169 6.62329 0.611235 6.62329C1.81409 6.63629 3.01695 6.62979 4.21981 6.62329C4.42787 6.62329 4.4994 6.66229 4.4994 6.88978C4.49289 11.1732 4.49289 15.4501 4.4994 19.7335C4.4994 19.9415 4.43438 19.987 4.23932 19.987C3.02345 19.9805 1.80109 19.9805 0.585227 19.987C0.370663 19.987 0.331651 19.9155 0.331651 19.7205C0.331651 17.595 0.331651 15.4566 0.331651 13.3181Z" fill="white"/>
<path d="M2.39924 4.83591C1.07935 4.83591 -0.00647289 3.72443 2.90492e-05 2.39197C0.00653099 1.0725 1.09886 -0.00647062 2.41875 2.92136e-05C3.73864 0.00652905 4.82447 1.0985 4.81797 2.41147C4.80496 3.75043 3.71914 4.83591 2.39924 4.83591Z" fill="white"/>
</svg>
