<svg width="55" height="55" viewBox="0 0 55 55" fill="none" xmlns="http://www.w3.org/2000/svg">
<g clip-path="url(#clip0_18_28)">
<path d="M1.17369 27.1709C1.1724 31.7919 2.38928 36.3041 4.70314 40.2811L0.9524 53.8695L14.9671 50.2233C18.8434 52.3172 23.1864 53.4143 27.5999 53.4146H27.6115C42.1811 53.4146 54.0411 41.6508 54.0474 27.1916C54.0502 20.185 51.3027 13.5965 46.3111 8.63972C41.3203 3.68332 34.6827 0.952294 27.6104 0.949097C13.0391 0.949097 1.17992 12.7123 1.1739 27.1709" fill="url(#paint0_linear_18_28)"/>
<path d="M0.229883 27.1623C0.228379 31.9497 1.48887 36.6232 3.88523 40.7426L0 54.8182L14.5172 51.0413C18.5172 53.2052 23.0207 54.3462 27.6033 54.3479H27.6152C42.7075 54.3479 54.9936 42.1609 55 27.1841C55.0026 19.9258 52.1563 13.1004 46.9863 7.96605C41.8157 2.83229 34.9407 0.0029845 27.6152 0C12.5202 0 0.235898 12.1853 0.229883 27.1623ZM8.8752 40.0332L8.33314 39.1794C6.05451 35.5844 4.85182 31.4299 4.85354 27.164C4.85848 14.7155 15.0687 4.5876 27.6238 4.5876C33.7038 4.59015 39.4178 6.94194 43.7155 11.2089C48.0131 15.4763 50.3779 21.149 50.3763 27.1824C50.3708 39.6309 40.1603 49.7601 27.6152 49.7601H27.6061C23.5213 49.7579 19.5151 48.6695 16.0213 46.6125L15.1899 46.1233L6.57508 48.3644L8.8752 40.033V40.0332Z" fill="url(#paint1_linear_18_28)"/>
<path d="M20.7707 15.8067C20.258 14.6762 19.7186 14.6534 19.2311 14.6336C18.8319 14.6165 18.3756 14.6178 17.9197 14.6178C17.4634 14.6178 16.7219 14.7881 16.0952 15.4671C15.4679 16.1467 13.7002 17.7891 13.7002 21.1294C13.7002 24.4699 16.1522 27.698 16.494 28.1514C16.8362 28.604 21.2276 35.6781 28.1826 38.3996C33.9627 40.6612 35.139 40.2114 36.3935 40.098C37.6481 39.985 40.442 38.4561 41.012 36.8707C41.5824 35.2855 41.5824 33.9267 41.4114 33.6427C41.2403 33.3598 40.784 33.1899 40.0997 32.8505C39.4152 32.5109 36.0512 30.8684 35.4241 30.6418C34.7967 30.4154 34.3406 30.3024 33.8843 30.9822C33.428 31.661 32.1176 33.1899 31.7182 33.6427C31.3193 34.0966 30.9199 34.1531 30.2358 33.8135C29.5511 33.4728 27.3475 32.7567 24.733 30.444C22.6989 28.6443 21.3256 26.4219 20.9264 25.7421C20.5272 25.0633 20.8837 24.6954 21.2268 24.3571C21.5342 24.0529 21.9113 23.5643 22.2537 23.168C22.5949 22.7715 22.7088 22.4886 22.9369 22.0358C23.1653 21.5826 23.051 21.1861 22.8802 20.8465C22.7088 20.5069 21.3791 17.1491 20.7707 15.8067Z" fill="white"/>
</g>
<defs>
<linearGradient id="paint0_linear_18_28" x1="2655.7" y1="5292.99" x2="2655.7" y2="0.949097" gradientUnits="userSpaceOnUse">
<stop stop-color="#1FAF38"/>
<stop offset="1" stop-color="#60D669"/>
</linearGradient>
<linearGradient id="paint1_linear_18_28" x1="2750" y1="5481.82" x2="2750" y2="0" gradientUnits="userSpaceOnUse">
<stop stop-color="#F9F9F9"/>
<stop offset="1" stop-color="white"/>
</linearGradient>
<clipPath id="clip0_18_28">
<rect width="55" height="55" fill="white"/>
</clipPath>
</defs>
</svg>
